<?xml version="1.0" encoding="utf-8"?>
<!-- Generator: Adobe Illustrator 20.1.0, SVG Export Plug-In . SVG Version: 6.00 Build 0)  -->
<svg version="1.1" id="Layer_1" xmlns="http://www.w3.org/2000/svg" xmlns:xlink="http://www.w3.org/1999/xlink" x="0px" y="0px"
	 viewBox="0 0 1080 216" style="enable-background:new 0 0 1080 216;" xml:space="preserve">
<style type="text/css">
	.st0{fill:#FFFFFF;}
</style>
<path id="XMLID_275_" class="st0" d="M316.9,30.9c5.3,0,7.9,2.3,7.9,7c0,2.1-0.7,4.5-2,7l-16.4,28c-2.1,3.9-5.4,7.2-9.8,9.9
	c-4.4,2.7-8.4,4.1-12.1,4.1h-70.1c-5.5,0-8.2-2.3-8.2-7c0-2.1,0.7-4.5,2-7l8.2-14c1.4-2.5,2-4.9,2-7c0-4.7-2.6-7-7.9-7
	c-3.9,0-8,1.4-12.3,4.1c-4.3,2.7-7.6,6-9.9,9.9l-65,112c-2.1,3.9-5.4,7.3-9.8,10c-4.4,2.7-8.4,4.1-12.1,4.1H31.6
	c-5.4,0-8.2-2.3-8.2-7c0-2.1,0.7-4.5,2-7l73-126.1c2.1-3.9,5.4-7.2,9.8-9.9c4.4-2.7,8.5-4.1,12.4-4.1H316.9z"/>
<path id="XMLID_272_" class="st0" d="M560.8,30.9c5.3,0,7.9,2.3,7.9,7c0,2.1-0.7,4.5-2,7l-73,126.1c-2.1,3.9-5.4,7.2-9.8,9.9
	c-4.4,2.7-8.4,4.1-12.1,4.1H275.6c-5.5,0-8.2-2.3-8.2-7c0-2.1,0.7-4.5,2-7l32.4-56.1c2.3-3.9,5.6-7.2,9.9-9.9
	c4.3-2.7,8.4-4.1,12.3-4.1h98.1c3.9,0,8-1.4,12.3-4.1c4.3-2.7,7.6-6,10-9.9l16.1-28c1.2-2.6,1.8-4.9,1.8-7.1c0-4.7-2.6-7.1-7.9-7.1
	c-3.9,0-7.9,1.4-12.1,4.1c-4.2,2.8-7.5,6.1-9.8,10l-8.1,14c-2.1,3.9-5.4,7.1-9.8,9.8c-4.4,2.7-8.4,4-12.1,4h-70.3
	c-5.5,0-8.2-2.3-8.2-7c0-2.1,0.7-4.5,2-7l16.4-28c2.1-3.9,5.4-7.2,9.8-9.9c4.4-2.7,8.5-4.1,12.4-4.1H560.8z M420,129
	c1.4-2.5,2.1-4.9,2.1-7c0-4.7-2.7-7-8.2-7c-3.9,0-8,1.4-12.3,4.1c-4.3,2.7-7.5,6-9.6,9.9l-16.4,28c-1.4,2.5-2,4.9-2,7
	c0,4.7,2.6,7,7.9,7c3.9,0,8-1.4,12.4-4.1c4.4-2.7,7.6-6,9.8-9.9L420,129z"/>
<path id="XMLID_270_" class="st0" d="M804.7,30.9c5.3,0,7.9,2.3,7.9,7c0,2.1-0.7,4.5-2,7l-72.7,126.1c-2.3,3.9-5.6,7.2-9.9,9.9
	c-4.3,2.7-8.4,4.1-12.3,4.1h-98.1c-9.3,0-15.9-3-19.6-9.1l-38.5-66c-1.2-1.8-1.8-4.2-1.8-7.3c0-5.4,1.5-10.7,4.4-15.8l24.2-42
	c2.1-3.9,5.4-7.2,9.8-9.9c4.4-2.7,8.5-4.1,12.4-4.1h70.1c5.3,0,7.9,2.3,7.9,7c0,2.1-0.7,4.5-2,7l-64.8,112.1c-1.4,2.5-2,4.9-2,7
	c0,4.7,2.7,7,8.2,7c3.7,0,7.7-1.4,12.1-4.1c4.4-2.7,7.6-6,9.8-9.9l64.8-112.1c2.1-3.9,5.4-7.2,9.8-9.9c4.4-2.7,8.5-4.1,12.4-4.1
	H804.7z"/>
<path id="XMLID_264_" class="st0" d="M889.3,119.1c-4.3,2.7-7.5,6-9.6,9.9l-16.4,27.9c-1.2,2.6-1.8,4.9-1.8,7.1
	c0,4.7,2.6,7.1,7.9,7.1c3.9,0,8-1.4,12.4-4.1c4.4-2.7,7.6-6,9.8-9.9l8.2-14c2.1-3.9,5.4-7.2,9.8-9.9c4.4-2.7,8.5-4.1,12.4-4.1H992
	c5.3,0,7.9,2.3,7.9,7c0,2.1-0.7,4.5-2,7l-16.4,28c-2.1,3.9-5.4,7.2-9.8,9.9c-4.4,2.7-8.4,4.1-12.1,4.1H763.4c-5.4,0-8.2-2.3-8.2-7
	c0-2.1,0.7-4.5,2-7l73-126.1c2.1-3.9,5.4-7.2,9.8-9.9c4.4-2.7,8.5-4.1,12.4-4.1h196.2c5.3,0,7.9,2.3,7.9,7c0,2.1-0.7,4.5-2,7
	L1022,101c-2.1,3.9-5.4,7.2-9.8,9.9c-4.4,2.7-8.5,4.1-12.4,4.1h-98.2C897.7,115,893.6,116.4,889.3,119.1z M903.8,86.8
	c-1.3,2.6-2,4.9-2,7.1c0,4.7,2.7,7.1,8.2,7.1c3.9,0,8-1.4,12.3-4.1c4.3-2.7,7.6-6,9.9-9.9l16.1-28c1.4-2.5,2-4.9,2-7
	c0-4.7-2.6-7-7.9-7c-3.9,0-8,1.4-12.3,4.1c-4.3,2.7-7.6,6-10,9.9L903.8,86.8z"/>
</svg>
